<svg width="227" height="52" viewBox="0 0 227 52" fill="none" xmlns="http://www.w3.org/2000/svg">
<path d="M73.0397 19.2946V14.0425C73.0397 13.7954 73.0397 12.8686 72.0775 13.1775L37.4982 23.9287C37.2576 23.9905 37.0171 23.8669 37.0171 23.558V16.823C37.0171 16.5141 37.2576 16.2051 37.4982 16.1433L62.4554 7.55474C62.9365 7.36937 63.4176 7.2458 63.4176 6.07181V0.819789C63.4176 0.449057 63.3575 -0.230616 62.4554 0.0783269L37.4381 10.6442C37.1975 10.7677 36.957 11.0767 36.957 11.3856V15.7726C36.957 16.0816 36.7164 16.2051 36.4759 16.0816L9.17324 4.5271C8.69214 4.34174 8.21104 4.46531 8.21104 5.26856V13.1157C8.21104 13.4247 8.27118 14.4133 9.17324 14.5986L36.536 23.8669C36.7765 23.9287 37.0171 24.2376 37.0171 24.5466V28.9336C37.0171 29.2425 36.7765 29.3661 36.536 29.3043L1.89656 18.1824C0.874213 17.8116 0.934352 18.6767 0.934352 19.0474L0.994489 27.6978C0.934351 28.8718 1.71614 29.0571 1.95669 29.1189L36.4759 37.6458C36.7765 37.7075 36.957 38.0165 36.957 38.2636V42.6506C36.957 42.9596 36.7164 43.1449 36.4759 43.0832L13.2626 38.2019C12.2403 38.0165 12.3004 38.8197 12.3004 39.1287L12.4207 47.7173C12.4207 48.9531 12.9018 48.8913 13.3829 49.0149C13.3829 49.0149 36.1752 51.9807 36.2353 51.9807C36.4759 52.0425 36.8968 51.9807 36.8968 51.4246V43.7628C36.8968 43.4539 37.1374 43.2067 37.3779 43.2067L60.3506 40.5498C60.6513 40.488 61.373 40.3645 61.373 39.2523V34.8653C61.373 34.4328 61.3128 33.7531 60.3506 33.8767L37.3779 37.6458C37.0772 37.7075 36.8968 37.5222 36.8968 37.2132V30.1076C36.8968 29.7986 37.1374 29.5515 37.3779 29.4279L71.8971 20.6539C73.0998 20.5303 73.0397 19.6035 73.0397 19.2946Z" fill="#FE3B1F"/>
<path d="M89.9976 10.0481C90.1695 9.8711 90.3414 9.87109 90.5993 9.87109C90.8571 9.87109 91.029 9.95958 91.2009 10.0481C91.3728 10.225 91.3728 10.402 91.3728 10.6674V20.5771C91.3728 21.3734 91.5447 22.0812 91.8885 22.6121C92.2323 23.143 92.6621 23.4084 93.1778 23.4084H95.1547C95.3266 23.4084 95.4985 23.4969 95.6704 23.5854C95.7563 23.7623 95.8423 23.9393 95.8423 24.2047C95.8423 24.4702 95.7563 24.6471 95.6704 24.8241C95.4985 25.001 95.3266 25.0895 95.0687 25.0895H93.1778C92.1464 25.0895 91.3728 24.6471 90.6852 23.8508C90.0836 23.0545 89.7397 21.9043 89.7397 20.6655V10.7559C89.8257 10.402 89.9116 10.225 89.9976 10.0481Z" fill="#000B8C"/>
<path d="M155.836 11.0211C156.954 11.6405 157.813 12.6137 158.501 13.764C159.102 14.9142 159.446 16.2414 159.446 17.6571C159.446 19.0727 159.102 20.3114 158.501 21.5501C157.899 22.7004 156.954 23.5852 155.836 24.293C154.719 24.9124 153.43 25.2663 152.054 25.2663C150.679 25.2663 149.39 24.9124 148.273 24.293C147.155 23.6736 146.296 22.7004 145.608 21.5501C145.006 20.3999 144.663 19.0727 144.663 17.6571C144.663 16.2414 145.006 14.9142 145.608 13.764C146.21 12.6137 147.155 11.729 148.273 11.0211C149.39 10.4018 150.679 10.0479 152.054 10.0479C153.43 10.0479 154.719 10.4018 155.836 11.0211ZM149.132 12.3483C148.273 12.8792 147.585 13.587 147.069 14.5603C146.553 15.4451 146.296 16.5068 146.296 17.6571C146.296 18.8073 146.553 19.869 147.069 20.7538C147.585 21.6386 148.273 22.4349 149.132 22.9658C149.992 23.4967 151.023 23.7621 152.054 23.7621C153.086 23.7621 154.117 23.4967 154.977 22.9658C155.836 22.4349 156.524 21.7271 157.04 20.7538C157.555 19.869 157.813 18.8073 157.813 17.6571C157.813 16.5068 157.555 15.4451 157.04 14.5603C156.524 13.6755 155.836 12.8792 154.977 12.3483C154.117 11.8174 153.086 11.552 152.054 11.552C151.023 11.552 149.992 11.8174 149.132 12.3483Z" fill="#000B8C"/>
<path d="M176.894 10.9326C176.894 11.0211 176.894 11.1981 176.808 11.1981L170.878 24.4699C170.706 24.8239 170.448 25.0008 170.018 25.0008C169.846 25.0008 169.674 24.9124 169.588 24.8239C169.417 24.7354 169.331 24.5584 169.245 24.3815L163.228 11.1096C163.228 11.0211 163.142 10.9326 163.142 10.8442C163.142 10.4902 163.314 10.3133 163.572 10.1363C163.658 10.0479 163.744 10.0479 163.916 10.0479C164.174 10.0479 164.431 10.2248 164.603 10.4902L170.018 22.5234L175.433 10.5787C175.605 10.3133 175.777 10.1363 176.121 10.1363C176.207 10.1363 176.379 10.1363 176.465 10.2248C176.808 10.4018 176.894 10.5787 176.894 10.9326Z" fill="#000B8C"/>
<path d="M182.567 10.4016C182.739 10.2246 182.911 10.2246 183.169 10.2246C183.427 10.2246 183.599 10.3131 183.77 10.4016C183.942 10.5785 183.942 10.7555 183.942 11.0209V24.2043C183.942 24.4697 183.856 24.6467 183.77 24.8237C183.599 25.0006 183.427 25.0891 183.169 25.0891C182.911 25.0891 182.739 25.0006 182.567 24.8237C182.395 24.6467 182.309 24.4697 182.309 24.2043V11.0209C182.395 10.7555 182.481 10.5785 182.567 10.4016Z" fill="#000B8C"/>
<path d="M200.531 11.0218C201.562 11.6411 202.336 12.5259 202.852 13.5877C203.453 14.6494 203.711 15.9766 203.711 17.3923C203.711 17.6577 203.625 17.8347 203.539 17.9232C203.367 18.1001 203.195 18.1001 203.024 18.1001H192.022C192.108 19.1619 192.366 20.1351 192.881 20.9314C193.397 21.8162 193.999 22.4356 194.858 22.878C195.718 23.3204 196.577 23.5858 197.609 23.5858C198.296 23.5858 198.984 23.4973 199.671 23.2319C200.359 22.9665 200.875 22.701 201.305 22.2586C201.476 22.0817 201.648 22.0817 201.82 22.0817C201.992 22.0817 202.164 22.1701 202.336 22.2586C202.508 22.4356 202.594 22.6125 202.594 22.7895C202.594 22.9665 202.508 23.1434 202.336 23.3204C201.734 23.8512 201.047 24.2936 200.101 24.6476C199.156 25.0015 198.296 25.1784 197.523 25.1784C196.147 25.1784 194.858 24.8245 193.827 24.2052C192.795 23.5858 191.936 22.701 191.248 21.5508C190.647 20.4006 190.303 19.0734 190.303 17.6577C190.303 16.1536 190.561 14.9149 191.162 13.7646C191.764 12.6144 192.538 11.7296 193.569 11.1103C194.6 10.4909 195.804 10.137 197.093 10.137C198.382 10.0485 199.5 10.4024 200.531 11.0218ZM193.655 12.9683C192.709 13.9416 192.194 15.1803 192.022 16.6844H202.25C202.164 15.1803 201.562 13.9416 200.703 12.9683C199.757 11.995 198.554 11.5527 197.179 11.5527C195.718 11.6411 194.6 12.0835 193.655 12.9683Z" fill="#000B8C"/>
<path d="M226.145 10.4012C226.231 10.5781 226.316 10.7551 226.316 10.9321C226.316 11.0205 226.316 11.1975 226.231 11.3745L222.019 24.5578C221.933 24.7348 221.847 24.8233 221.761 24.9118C221.589 25.0002 221.503 25.0887 221.245 25.0887C221.073 25.0887 220.902 25.0002 220.73 24.9118C220.558 24.8233 220.472 24.7348 220.472 24.5578L216.862 13.0556L213.424 24.5578C213.338 24.9118 213.08 25.0887 212.65 25.0887C212.478 25.0887 212.306 25.0002 212.22 24.9118C212.049 24.8233 211.963 24.7348 211.963 24.5578L207.665 11.3745C207.665 11.1975 207.579 11.0205 207.579 10.9321C207.579 10.4012 207.837 10.2242 208.267 10.2242C208.439 10.2242 208.61 10.2242 208.696 10.3127C208.868 10.4012 208.954 10.4897 209.04 10.6666L212.736 22.2574L216.174 10.8436C216.26 10.6666 216.346 10.4897 216.432 10.4012C216.604 10.3127 216.776 10.2242 216.948 10.2242C217.292 10.2242 217.635 10.4012 217.721 10.8436L221.159 21.9919L224.855 10.6666C225.027 10.3127 225.199 10.1357 225.629 10.1357C225.801 10.2242 226.059 10.3127 226.145 10.4012Z" fill="#000B8C"/>
<path d="M120.51 24.7354C120.424 24.5584 120.338 24.3815 120.338 24.2045C120.338 24.116 120.338 23.9391 120.424 23.7621L124.636 10.5787C124.722 10.4018 124.808 10.3133 124.894 10.2248C125.066 10.1363 125.152 10.0479 125.41 10.0479C125.582 10.0479 125.753 10.1363 125.925 10.2248C126.097 10.3133 126.183 10.4018 126.183 10.5787L129.793 22.081L133.231 10.5787C133.317 10.2248 133.575 10.0479 134.005 10.0479C134.177 10.0479 134.349 10.1363 134.434 10.2248C134.606 10.3133 134.692 10.4018 134.692 10.5787L138.99 23.7621C138.99 23.9391 139.076 24.116 139.076 24.2045C139.076 24.7354 138.818 24.9123 138.388 24.9123C138.216 24.9123 138.044 24.9124 137.959 24.8239C137.787 24.7354 137.701 24.6469 137.615 24.4699L133.919 12.8792L130.481 24.293C130.395 24.47 130.309 24.6469 130.223 24.7354C130.051 24.8239 129.879 24.9123 129.707 24.9123C129.363 24.9123 129.02 24.7354 128.934 24.293L125.496 13.1446L121.8 24.4699C121.628 24.8239 121.456 25.0008 121.026 25.0008C120.854 25.0008 120.682 24.9123 120.51 24.7354Z" fill="#000B8C"/>
<path d="M114.494 10.4012C114.322 10.2242 114.15 10.1357 113.892 10.1357C113.634 10.1357 113.462 10.2242 113.29 10.4012C113.119 10.5781 113.033 10.7551 113.033 11.0205V18.2758C113.033 19.9569 112.603 21.2841 111.657 22.1689C110.712 23.0537 109.509 23.4961 108.047 23.4961C106.586 23.4961 105.383 23.0537 104.437 22.1689C103.492 21.2841 103.062 19.9569 103.062 18.2758V11.0205C103.062 10.7551 102.976 10.5781 102.804 10.4012C102.632 10.2242 102.461 10.1357 102.203 10.1357C101.945 10.1357 101.773 10.2242 101.601 10.4012C101.429 10.5781 101.343 10.7551 101.343 11.0205V18.2758C101.343 19.6915 101.601 20.9302 102.203 21.9919C102.804 23.0537 103.578 23.85 104.609 24.3809C105.555 24.9118 106.672 25.1772 107.961 25.1772C109.165 25.1772 110.282 24.9118 111.314 24.3809C112.345 23.85 113.119 23.0537 113.72 21.9919C114.322 20.9302 114.58 19.6915 114.58 18.2758V11.0205C114.666 10.7551 114.666 10.5781 114.494 10.4012Z" fill="#000B8C"/>
<path d="M113.376 31.2825C113.72 31.4595 113.978 31.7249 114.15 31.9904C114.322 32.3443 114.408 32.6982 114.408 33.0521C114.408 33.4945 114.322 33.8484 114.064 34.2023C113.806 34.5563 113.548 34.7332 113.204 34.9102C113.72 35.0871 114.064 35.3526 114.408 35.7065C114.666 36.0604 114.838 36.5913 114.838 37.1222C114.838 37.653 114.752 38.0069 114.494 38.4493C114.322 38.8033 113.978 39.1572 113.634 39.3341C113.29 39.5111 112.861 39.688 112.345 39.688H109.68C109.594 39.688 109.423 39.6881 109.337 39.5996C109.251 39.5111 109.251 39.4226 109.251 39.3341V31.371C109.251 31.2825 109.251 31.194 109.337 31.1056C109.423 31.0171 109.509 31.0171 109.594 31.0171H112.259C112.689 31.0171 113.033 31.1056 113.376 31.2825ZM113.462 34.2908C113.72 34.0254 113.892 33.583 113.892 33.1406C113.892 32.6982 113.72 32.3443 113.462 32.0788C113.204 31.8134 112.775 31.7249 112.345 31.7249H110.024V34.7332H112.345C112.775 34.7332 113.118 34.5563 113.462 34.2908ZM113.376 38.8033C113.634 38.6263 113.892 38.4493 114.064 38.1839C114.236 37.9185 114.322 37.5646 114.322 37.2106C114.322 36.8567 114.236 36.5913 114.064 36.2374C113.892 35.9719 113.72 35.7065 113.376 35.618C113.033 35.5295 112.775 35.3526 112.431 35.3526H109.938V38.9802H112.431C112.861 38.9802 113.118 38.9802 113.376 38.8033Z" fill="#312783"/>
<path d="M121.8 33.7609C121.885 33.8494 121.885 33.9379 121.885 34.0264V39.4236C121.885 39.5121 121.885 39.6006 121.8 39.689C121.714 39.7775 121.628 39.7775 121.542 39.7775C121.456 39.7775 121.37 39.7775 121.284 39.689C121.198 39.6006 121.198 39.5121 121.198 39.4236V38.8042C120.94 39.1582 120.682 39.3351 120.338 39.5121C119.995 39.689 119.565 39.7775 119.221 39.7775C118.705 39.7775 118.19 39.689 117.846 39.4236C117.416 39.2467 117.072 38.8927 116.9 38.4503C116.642 38.0079 116.556 37.4771 116.556 36.9462V33.9379C116.556 33.8494 116.556 33.7609 116.642 33.6725C116.728 33.584 116.814 33.584 116.9 33.584C116.986 33.584 117.072 33.584 117.158 33.6725C117.244 33.7609 117.244 33.8494 117.244 33.9379V36.9462C117.244 37.654 117.416 38.1849 117.846 38.5388C118.19 38.8927 118.705 39.0697 119.307 39.0697C119.651 39.0697 119.995 38.9812 120.338 38.8042C120.682 38.6273 120.854 38.4503 121.112 38.1849C121.284 37.9195 121.37 37.654 121.37 37.3001V33.9379C121.37 33.8494 121.37 33.7609 121.456 33.6725C121.542 33.584 121.628 33.584 121.714 33.584C121.714 33.6725 121.8 33.6725 121.8 33.7609Z" fill="#312783"/>
<path d="M124.722 31.4597C124.808 31.5482 124.894 31.6366 124.894 31.8136C124.894 31.9906 124.808 32.079 124.722 32.1675C124.636 32.256 124.464 32.3445 124.378 32.3445C124.206 32.3445 124.12 32.256 124.034 32.1675C123.948 32.079 123.862 31.9021 123.862 31.8136C123.862 31.6366 123.948 31.5482 124.034 31.4597C124.12 31.3712 124.292 31.2827 124.378 31.2827C124.464 31.2827 124.55 31.3712 124.722 31.4597ZM124.12 33.7601C124.206 33.6717 124.292 33.6717 124.378 33.6717C124.464 33.6717 124.55 33.6717 124.636 33.7601C124.722 33.8486 124.722 33.9371 124.722 34.0256V39.4228C124.722 39.5113 124.722 39.5998 124.636 39.6882C124.55 39.7767 124.464 39.7767 124.378 39.7767C124.292 39.7767 124.206 39.7767 124.12 39.6882C124.034 39.5998 124.034 39.5113 124.034 39.4228V34.0256C124.034 33.8486 124.034 33.7601 124.12 33.7601Z" fill="#312783"/>
<path d="M126.699 31.1056C126.785 31.0171 126.871 31.0171 126.957 31.0171C127.043 31.0171 127.129 31.0171 127.215 31.1056C127.301 31.194 127.301 31.2825 127.301 31.371V37.83C127.301 38.1839 127.386 38.4493 127.472 38.6263C127.644 38.8033 127.816 38.9802 127.988 38.9802H128.246C128.332 38.9802 128.418 38.9802 128.418 39.0687C128.504 39.1572 128.504 39.2457 128.504 39.3341C128.504 39.4226 128.504 39.5111 128.418 39.5996C128.332 39.6881 128.246 39.688 128.16 39.688H127.988C127.558 39.688 127.215 39.5111 126.957 39.1572C126.699 38.8033 126.527 38.3609 126.527 37.83V31.371C126.613 31.2825 126.699 31.194 126.699 31.1056Z" fill="#312783"/>
<path d="M135.208 31.1059C135.294 31.1943 135.294 31.2828 135.294 31.3713V36.6801C135.294 37.2109 135.122 37.7418 134.864 38.2727C134.606 38.7151 134.263 39.069 133.747 39.3344C133.317 39.5999 132.801 39.6883 132.2 39.6883C131.598 39.6883 131.082 39.5114 130.653 39.2459C130.223 38.9805 129.793 38.6266 129.535 38.0957C129.277 37.5648 129.105 37.1224 129.105 36.5031C129.105 35.8837 129.277 35.4413 129.535 34.9105C129.793 34.3796 130.137 34.0257 130.653 33.7602C131.082 33.4948 131.598 33.3178 132.2 33.3178C132.715 33.3178 133.145 33.4063 133.575 33.6718C134.005 33.9372 134.349 34.2026 134.52 34.5566V31.1059C134.52 31.0174 134.52 30.9289 134.606 30.8404C134.692 30.7519 134.778 30.752 134.864 30.752C135.036 31.0174 135.122 31.1059 135.208 31.1059ZM133.489 38.8035C133.833 38.6266 134.091 38.2727 134.349 37.9188C134.52 37.5648 134.692 37.1224 134.692 36.6801C134.692 36.2377 134.606 35.7953 134.349 35.4413C134.177 35.0874 133.833 34.7335 133.489 34.5566C133.145 34.3796 132.715 34.2026 132.286 34.2026C131.856 34.2026 131.426 34.2911 131.082 34.5566C130.739 34.7335 130.481 35.0874 130.223 35.4413C130.051 35.7953 129.879 36.2377 129.879 36.6801C129.879 37.1224 129.965 37.5648 130.223 37.9188C130.481 38.2727 130.739 38.6266 131.082 38.8035C131.426 38.9805 131.856 39.1575 132.286 39.1575C132.715 39.1575 133.145 38.9805 133.489 38.8035Z" fill="#312783"/>
<path d="M137.959 31.4597C138.044 31.5482 138.13 31.6366 138.13 31.8136C138.13 31.9906 138.044 32.079 137.959 32.1675C137.873 32.256 137.701 32.3445 137.615 32.3445C137.443 32.3445 137.357 32.256 137.271 32.1675C137.185 32.079 137.099 31.9021 137.099 31.8136C137.099 31.6366 137.185 31.5482 137.271 31.4597C137.357 31.3712 137.529 31.2827 137.615 31.2827C137.701 31.2827 137.873 31.3712 137.959 31.4597ZM137.357 33.7601C137.443 33.6717 137.529 33.6717 137.615 33.6717C137.701 33.6717 137.787 33.6717 137.873 33.7601C137.959 33.8486 137.959 33.9371 137.959 34.0256V39.4228C137.959 39.5113 137.959 39.5998 137.873 39.6882C137.787 39.7767 137.701 39.7767 137.615 39.7767C137.529 39.7767 137.443 39.7767 137.357 39.6882C137.271 39.5998 137.271 39.5113 137.271 39.4228V34.0256C137.271 33.8486 137.357 33.7601 137.357 33.7601Z" fill="#312783"/>
<path d="M144.147 33.8494C144.577 34.0264 144.92 34.3803 145.092 34.8227C145.35 35.2651 145.436 35.796 145.436 36.3268V39.3351C145.436 39.4236 145.436 39.5121 145.35 39.6006C145.264 39.689 145.178 39.689 145.092 39.689C145.006 39.689 144.92 39.689 144.834 39.6006C144.749 39.5121 144.749 39.4236 144.749 39.3351V36.3268C144.749 35.619 144.577 35.0881 144.147 34.7342C143.717 34.3803 143.287 34.2033 142.686 34.2033C142.342 34.2033 141.998 34.2918 141.654 34.4688C141.31 34.6457 141.139 34.8227 140.881 35.0881C140.709 35.3536 140.623 35.619 140.623 35.9729V39.3351C140.623 39.4236 140.623 39.5121 140.537 39.6006C140.451 39.689 140.365 39.689 140.279 39.689C140.193 39.689 140.107 39.689 140.021 39.6006C139.935 39.5121 139.935 39.4236 139.935 39.3351V33.9379C139.935 33.8494 139.935 33.7609 140.021 33.6725C140.107 33.584 140.193 33.584 140.279 33.584C140.365 33.584 140.451 33.584 140.537 33.6725C140.623 33.7609 140.623 33.8494 140.623 33.9379V34.5573C140.881 34.2918 141.139 34.0264 141.482 33.8494C141.826 33.6725 142.256 33.584 142.6 33.584C143.201 33.584 143.717 33.6725 144.147 33.8494Z" fill="#312783"/>
<path d="M151.539 33.9375C151.968 34.2029 152.312 34.5568 152.57 34.9992C152.828 35.4416 152.914 35.9725 152.914 36.5919V38.7154C152.914 39.3347 152.828 39.8656 152.57 40.308C152.312 40.7504 151.968 41.1928 151.539 41.4582C151.109 41.7236 150.593 41.9006 149.992 41.9006C149.39 41.9006 148.96 41.8121 148.53 41.5467C148.101 41.3697 147.757 41.0158 147.499 40.6619L147.413 40.4849C147.413 40.3965 147.413 40.308 147.499 40.308L147.671 40.2195C147.757 40.2195 147.843 40.308 147.929 40.3965C148.187 40.6619 148.444 40.9273 148.788 41.1043C149.132 41.2813 149.562 41.3697 149.992 41.3697C150.421 41.3697 150.851 41.2812 151.195 41.0158C151.539 40.7504 151.797 40.4849 152.054 40.131C152.226 39.7771 152.312 39.3347 152.312 38.8038V38.3614C152.14 38.8038 151.797 39.1578 151.367 39.4232C150.937 39.6886 150.507 39.7771 149.906 39.7771C149.304 39.7771 148.788 39.6886 148.359 39.4232C147.929 39.1578 147.585 38.8038 147.327 38.3614C147.069 37.919 146.897 37.3882 146.897 36.7688C146.897 36.1495 147.069 35.6186 147.327 35.1762C147.585 34.7338 147.929 34.3799 148.444 34.1144C148.874 33.849 149.39 33.7605 149.992 33.7605C150.593 33.5836 151.109 33.672 151.539 33.9375ZM151.195 38.8038C151.539 38.6269 151.797 38.273 152.054 37.919C152.226 37.5651 152.312 37.1227 152.312 36.6803C152.312 36.2379 152.226 35.7955 152.054 35.3532C151.883 34.9992 151.539 34.6453 151.195 34.4684C150.851 34.2914 150.421 34.1144 149.992 34.1144C149.562 34.1144 149.132 34.2029 148.788 34.4684C148.444 34.6453 148.187 34.9992 147.929 35.3532C147.757 35.7071 147.585 36.1495 147.585 36.6803C147.585 37.1227 147.671 37.5651 147.929 37.919C148.101 38.273 148.444 38.6269 148.788 38.8038C149.132 38.9808 149.562 39.1578 149.992 39.1578C150.507 39.1578 150.851 39.0693 151.195 38.8038Z" fill="#312783"/>
<path d="M164.345 39.3342C164.345 39.4227 164.345 39.5112 164.259 39.5997C164.174 39.6882 164.088 39.6881 164.002 39.6881C163.83 39.6881 163.744 39.5997 163.744 39.5112L162.97 37.5647H158.587L157.813 39.5112C157.727 39.6881 157.641 39.6881 157.469 39.6881C157.383 39.6881 157.297 39.6882 157.211 39.5997C157.125 39.5112 157.125 39.4227 157.125 39.3342V39.1573L160.392 31.1942C160.478 31.0172 160.564 30.9287 160.735 30.9287C160.907 30.9287 160.993 31.0172 161.079 31.1942L164.345 39.1573V39.3342ZM162.626 36.9453L160.65 32.1674L158.759 36.9453H162.626Z" fill="#312783"/>
<path d="M169.675 33.8494C170.104 34.0264 170.448 34.3803 170.62 34.8227C170.878 35.2651 170.964 35.796 170.964 36.3268V39.3351C170.964 39.4236 170.964 39.5121 170.878 39.6006C170.792 39.689 170.706 39.689 170.62 39.689C170.534 39.689 170.448 39.689 170.362 39.6006C170.276 39.5121 170.276 39.4236 170.276 39.3351V36.3268C170.276 35.619 170.104 35.0881 169.675 34.7342C169.331 34.3803 168.815 34.2033 168.213 34.2033C167.87 34.2033 167.526 34.2918 167.182 34.4688C166.838 34.6457 166.666 34.8227 166.408 35.0881C166.237 35.3536 166.151 35.619 166.151 35.9729V39.3351C166.151 39.4236 166.151 39.5121 166.065 39.6006C165.979 39.689 165.893 39.689 165.807 39.689C165.721 39.689 165.635 39.689 165.549 39.6006C165.463 39.5121 165.463 39.4236 165.463 39.3351V33.9379C165.463 33.8494 165.463 33.7609 165.549 33.6725C165.635 33.584 165.721 33.584 165.807 33.584C165.893 33.584 165.979 33.584 166.065 33.6725C166.151 33.7609 166.151 33.8494 166.151 33.9379V34.5573C166.408 34.2918 166.666 34.0264 167.01 33.8494C167.354 33.6725 167.784 33.584 168.127 33.584C168.815 33.584 169.245 33.6725 169.675 33.8494Z" fill="#312783"/>
<path d="M177.066 33.9372C177.496 34.2027 177.926 34.5566 178.184 35.0875C178.442 35.5298 178.613 36.0607 178.613 36.6801V39.3345C178.613 39.4229 178.613 39.5114 178.527 39.5999C178.442 39.6884 178.356 39.6884 178.27 39.6884C178.184 39.6884 178.098 39.6884 178.012 39.5999C177.926 39.5114 177.926 39.4229 177.926 39.3345V38.4497C177.668 38.8036 177.324 39.1575 176.98 39.3345C176.551 39.5999 176.121 39.6884 175.605 39.6884C175.003 39.6884 174.488 39.5114 174.058 39.246C173.628 38.9805 173.199 38.6266 172.941 38.0958C172.683 37.6534 172.511 37.1225 172.511 36.5031C172.511 35.8838 172.683 35.3529 172.941 34.9105C173.199 34.4681 173.542 34.0257 174.058 33.7603C174.488 33.4948 175.003 33.3179 175.605 33.3179C176.121 33.5833 176.637 33.6718 177.066 33.9372ZM176.723 38.8036C177.066 38.6266 177.324 38.2727 177.582 37.9188C177.754 37.5649 177.926 37.1225 177.926 36.6801C177.926 36.2377 177.84 35.7953 177.582 35.4414C177.41 35.0875 177.066 34.7335 176.723 34.5566C176.379 34.3796 175.949 34.2027 175.519 34.2027C175.089 34.2027 174.66 34.2911 174.316 34.5566C173.972 34.7335 173.714 35.0875 173.456 35.4414C173.284 35.7953 173.113 36.2377 173.113 36.6801C173.113 37.1225 173.199 37.5649 173.456 37.9188C173.628 38.2727 173.972 38.6266 174.316 38.8036C174.66 38.9805 175.089 39.1575 175.519 39.1575C175.949 39.1575 176.379 39.069 176.723 38.8036Z" fill="#312783"/>
<path d="M180.247 31.1056C180.333 31.0171 180.418 31.0171 180.504 31.0171C180.59 31.0171 180.676 31.0171 180.762 31.1056C180.848 31.194 180.848 31.2825 180.848 31.371V37.83C180.848 38.1839 180.934 38.4493 181.02 38.6263C181.192 38.8033 181.364 38.9802 181.536 38.9802H181.794C181.88 38.9802 181.966 38.9802 181.966 39.0687C182.052 39.1572 182.052 39.2457 182.052 39.3341C182.052 39.4226 182.052 39.5111 181.966 39.5996C181.88 39.6881 181.794 39.688 181.708 39.688H181.536C181.106 39.688 180.762 39.5111 180.504 39.1572C180.247 38.8033 180.075 38.3609 180.075 37.83V31.371C180.161 31.2825 180.247 31.194 180.247 31.1056Z" fill="#312783"/>
<path d="M187.982 33.9373V34.1143L184.372 42.1659C184.286 42.3428 184.2 42.3428 184.114 42.3428H183.942C183.77 42.2544 183.77 42.1659 183.77 42.0774L183.856 41.9004L184.888 39.5115L184.802 39.423L182.481 34.1143V33.9373C182.481 33.8488 182.567 33.7604 182.653 33.6719H182.825C182.911 33.6719 182.997 33.7604 183.083 33.8488L185.232 38.8037L187.38 33.9373C187.466 33.8488 187.552 33.7603 187.638 33.7603H187.81C187.896 33.6719 187.982 33.7603 187.982 33.9373Z" fill="#312783"/>
<path d="M192.537 39.0693C192.623 39.1577 192.623 39.2462 192.623 39.3347C192.623 39.4232 192.623 39.5117 192.537 39.6001C192.451 39.6886 192.366 39.6886 192.28 39.6886H192.022C191.592 39.6886 191.248 39.6001 190.99 39.4232C190.732 39.2462 190.475 38.9808 190.303 38.6269C190.131 38.2729 190.045 37.919 190.045 37.5651V34.4683H189.185C189.099 34.4683 189.013 34.4683 189.013 34.3799C189.013 34.2914 188.927 34.2914 188.927 34.2029C188.927 34.1144 188.927 34.0259 189.013 34.0259C189.099 34.0259 189.099 33.9375 189.185 33.9375H190.045V32.1679C190.045 32.0794 190.045 31.9909 190.131 31.9024C190.217 31.814 190.303 31.814 190.389 31.814C190.475 31.814 190.561 31.814 190.647 31.9024C190.732 31.9909 190.732 32.0794 190.732 32.1679V33.9375H192.108C192.194 33.9375 192.28 33.9375 192.28 34.0259C192.28 34.1144 192.366 34.1144 192.366 34.2029C192.366 34.2914 192.366 34.3799 192.28 34.3799C192.194 34.3799 192.194 34.4683 192.108 34.4683H190.732V37.5651C190.732 38.0075 190.818 38.3614 191.162 38.6269C191.42 38.8923 191.764 39.0693 192.194 39.0693H192.452C192.366 38.9808 192.451 39.0693 192.537 39.0693Z" fill="#312783"/>
<path d="M194.772 31.4597C194.858 31.5482 194.944 31.6366 194.944 31.8136C194.944 31.9906 194.858 32.079 194.772 32.1675C194.686 32.256 194.514 32.3445 194.428 32.3445C194.342 32.3445 194.171 32.256 194.085 32.1675C193.999 32.079 193.913 31.9021 193.913 31.8136C193.913 31.6366 193.999 31.5482 194.085 31.4597C194.171 31.3712 194.342 31.2827 194.428 31.2827C194.514 31.2827 194.686 31.3712 194.772 31.4597ZM194.171 33.7601C194.257 33.6717 194.342 33.6717 194.428 33.6717C194.514 33.6717 194.6 33.6717 194.686 33.7601C194.772 33.8486 194.772 33.9371 194.772 34.0256V39.4228C194.772 39.5113 194.772 39.5998 194.686 39.6882C194.6 39.7767 194.514 39.7767 194.428 39.7767C194.342 39.7767 194.257 39.7767 194.171 39.6882C194.085 39.5998 194.085 39.5113 194.085 39.4228V34.0256C194.085 33.8486 194.085 33.7601 194.171 33.7601Z" fill="#312783"/>
<path d="M200.445 33.8482C200.789 34.0251 201.133 34.2905 201.477 34.6445L201.562 34.8214C201.562 34.9099 201.477 34.9984 201.391 35.0869L201.219 35.1753C201.133 35.1753 201.047 35.0869 200.961 34.9984C200.531 34.4675 199.929 34.1136 199.242 34.1136C198.812 34.1136 198.468 34.2021 198.124 34.4675C197.781 34.7329 197.523 34.9984 197.351 35.3523C197.179 35.7062 197.093 36.1486 197.093 36.591C197.093 37.0334 197.179 37.4758 197.351 37.8297C197.523 38.1836 197.781 38.5376 198.124 38.7145C198.468 38.8915 198.898 39.0684 199.328 39.0684C199.929 39.0684 200.445 38.8915 200.875 38.5376C200.961 38.4491 201.047 38.4491 201.133 38.4491C201.219 38.4491 201.305 38.4491 201.305 38.5376C201.391 38.626 201.391 38.7145 201.391 38.803C201.391 38.8915 201.391 38.98 201.305 38.98C201.047 39.2454 200.789 39.4223 200.445 39.5108C200.101 39.5993 199.757 39.6878 199.414 39.6878C198.898 39.6878 198.382 39.5108 197.952 39.2454C197.523 38.9799 197.179 38.626 196.921 38.0952C196.663 37.5643 196.577 37.1219 196.577 36.5025C196.577 35.8832 196.663 35.3523 196.921 34.9099C197.179 34.4675 197.523 34.1136 197.952 33.8482C198.382 33.5827 198.812 33.4058 199.414 33.4058C199.672 33.5827 200.101 33.6712 200.445 33.8482Z" fill="#312783"/>
<path d="M207.149 34.556L207.235 34.733C207.235 34.8214 207.149 34.9099 207.063 34.9984H206.892C206.806 34.9984 206.72 34.9099 206.634 34.8214C206.29 34.379 205.774 34.1136 205.087 34.1136C204.657 34.1136 204.313 34.2021 204.055 34.379C203.797 34.556 203.711 34.8214 203.711 35.0869C203.711 35.3523 203.797 35.6177 204.055 35.7947C204.313 35.9717 204.743 36.1486 205.258 36.2371C206.032 36.3256 206.548 36.591 206.892 36.8564C207.235 37.1219 207.407 37.5643 207.407 38.0067C207.407 38.3606 207.321 38.626 207.063 38.8915C206.891 39.1569 206.548 39.3339 206.204 39.5108C205.86 39.6878 205.43 39.6878 205.087 39.6878C204.743 39.6878 204.227 39.5993 203.883 39.4224C203.453 39.2454 203.196 39.0684 202.938 38.7145L202.852 38.5376C202.852 38.4491 202.938 38.3606 203.024 38.2721C203.11 38.2721 203.11 38.1836 203.196 38.1836C203.282 38.1836 203.367 38.1836 203.453 38.2721C203.797 38.7145 204.399 38.98 205.172 38.98C205.774 38.98 206.118 38.8915 206.462 38.7145C206.806 38.5376 206.892 38.2721 206.892 37.9182C206.892 37.2988 206.376 36.9449 205.258 36.768C204.571 36.6795 204.055 36.5025 203.711 36.1486C203.367 35.8832 203.196 35.5293 203.196 35.0869C203.196 34.556 203.367 34.1136 203.797 33.8482C204.141 33.5827 204.657 33.4058 205.258 33.4058C206.032 33.5827 206.72 33.9366 207.149 34.556Z" fill="#312783"/>
</svg>
